<?xml version="1.0" encoding="utf-8"?>
<!-- Generator: Adobe Illustrator 26.1.0, SVG Export Plug-In . SVG Version: 6.00 Build 0)  -->
<svg version="1.1" id="Layer_1" xmlns="http://www.w3.org/2000/svg" xmlns:xlink="http://www.w3.org/1999/xlink" x="0px" y="0px"
	 viewBox="0 0 35 35" style="enable-background:new 0 0 35 35;" xml:space="preserve">
<style type="text/css">
	.st0{fill:none;stroke:#000000;stroke-miterlimit:10;}
</style>
<path class="st0" d="M28.9,9.7c0.6-0.1,1.2-0.2,1.8-0.4c0.6-0.2,1.2-0.4,1.8-0.6c-0.4,0.6-0.9,1.2-1.4,1.8c-0.5,0.5-1.1,1-1.7,1.4
	v0.8c0,2.1-0.4,4.2-1.1,6.1c-0.8,2.1-1.9,4-3.3,5.6c-1.5,1.7-3.4,3.1-5.4,4.1c-2.3,1.1-4.9,1.6-7.5,1.6c-1.7,0-3.4-0.2-5-0.6
	c-1.5-0.4-3-1-4.3-1.9c0.2,0,0.5,0.1,0.7,0.1h0.8c1.4,0,2.8-0.3,4.1-0.8c1.3-0.5,2.4-1.2,3.5-2.1c-1.3,0-2.5-0.5-3.6-1.3
	c-1-0.7-1.8-1.8-2.2-3l0.6,0.1h0.6c0.3,0,0.5,0,0.8,0c0.3,0,0.5-0.1,0.8-0.1c-2.9-0.5-4.9-3.1-4.9-6v-0.1c0.4,0.2,0.8,0.4,1.2,0.6
	c0.5,0.1,1,0.2,1.4,0.2c-0.8-0.6-1.5-1.3-2-2.2c-0.5-0.9-0.7-1.9-0.7-2.9C3.9,9.5,4,9,4.1,8.5c0.2-0.5,0.4-1,0.6-1.4
	C5.5,8,6.3,8.9,7.2,9.6c0.9,0.7,2,1.4,3.1,1.9c1.1,0.5,2.2,1,3.4,1.2c1.2,0.3,2.4,0.5,3.7,0.6c0-0.2-0.1-0.5-0.1-0.7
	c0-0.2,0-0.5,0-0.7c0-1.6,0.6-3.2,1.8-4.3c1.8-1.8,4.5-2.3,6.8-1.2c0.7,0.3,1.4,0.8,2,1.4c0.7-0.1,1.4-0.3,2-0.6
	c0.6-0.2,1.2-0.5,1.8-0.9c-0.2,0.7-0.6,1.4-1,1.9C30.2,8.8,29.6,9.3,28.9,9.7z"/>
</svg>
